<?xml version="1.0" standalone="no"?>
<!DOCTYPE svg PUBLIC "-//W3C//DTD SVG 20010904//EN"
 "http://www.w3.org/TR/2001/REC-SVG-20010904/DTD/svg10.dtd">
<svg version="1.0" xmlns="http://www.w3.org/2000/svg"
 width="684.000000pt" height="720.000000pt" viewBox="0 0 684.000000 720.000000"
 preserveAspectRatio="xMidYMid meet">

<g transform="translate(0.000000,720.000000) scale(0.100000,-0.100000)"
fill="#000000" stroke="none">
<path d="M0 3600 l0 -3600 807 0 807 0 -34 36 c-19 19 -42 43 -52 51 -20 19
-13 43 12 43 11 0 21 4 25 10 11 17 36 -2 70 -56 19 -30 41 -54 48 -54 7 0 19
16 26 35 7 19 19 35 28 35 23 0 73 -40 83 -66 5 -13 14 -24 20 -24 19 0 9 45
-15 69 -19 17 -23 27 -15 36 8 9 8 15 0 20 -15 9 -4 22 30 34 17 5 28 6 25 2
-6 -11 54 -33 66 -25 5 3 7 22 3 41 -7 34 -6 36 17 29 13 -4 31 -9 39 -10 8
-2 23 -7 33 -11 9 -4 29 -4 45 1 15 4 48 7 75 6 46 -1 65 12 30 21 -13 3 -12
5 5 6 13 0 30 -6 39 -14 12 -13 18 -13 30 -4 8 7 12 21 10 31 -5 16 -3 17 25
2 31 -16 31 -16 23 8 -26 81 -13 134 32 125 18 -3 23 0 23 17 0 44 -128 79
-269 74 -44 -2 -81 -6 -81 -9 0 -19 -509 -56 -790 -59 -8 0 -107 -3 -220 -6
-248 -7 -240 -12 -247 118 -5 100 2 116 77 175 77 61 106 90 146 148 18 28 79
102 134 165 55 63 142 167 194 231 148 181 196 229 231 229 17 0 43 -7 59 -15
27 -14 31 -14 39 1 17 30 47 54 67 54 37 0 96 -31 113 -59 15 -25 16 -60 2
-98 -4 -13 31 -63 45 -63 10 0 21 43 26 105 2 28 8 61 13 75 16 41 30 146 41
300 6 80 15 181 21 225 5 44 14 123 19 175 5 52 14 124 19 160 35 223 43 309
37 374 -8 81 -16 96 -43 69 -10 -10 -38 -25 -61 -32 -51 -17 -95 -6 -154 41
-57 44 -78 99 -78 199 0 46 -6 118 -14 159 -8 41 -20 149 -26 240 -6 98 -19
200 -32 250 -18 73 -20 111 -19 269 2 206 9 231 65 258 40 19 86 11 85 -15 0
-9 -6 -33 -13 -52 -12 -33 -16 -35 -57 -35 l-44 0 0 -85 c1 -114 16 -285 27
-302 14 -21 34 14 42 73 5 37 15 58 36 79 17 16 30 35 30 43 0 7 7 22 16 33
14 18 15 16 10 -30 -5 -42 -3 -53 16 -73 27 -28 38 -29 38 -2 0 11 5 17 10 14
6 -3 10 -35 10 -71 l0 -64 -76 -73 -77 -74 13 -38 c7 -22 26 -61 41 -87 16
-27 29 -52 29 -56 0 -12 50 -62 62 -62 6 0 17 -8 24 -17 12 -16 15 -16 24 -3
6 10 10 11 10 3 0 -7 6 -12 13 -10 6 1 23 -20 36 -46 l24 -49 13 30 c6 16 17
33 23 36 5 4 8 13 5 20 -3 7 2 16 11 20 12 4 14 14 10 39 -4 19 0 58 8 89 11
44 13 76 6 146 -6 57 -6 105 0 129 6 21 14 56 20 78 5 22 13 67 16 100 4 33
11 67 16 77 5 9 9 32 9 50 0 18 5 49 10 68 6 19 17 77 26 128 14 86 34 149 59
179 88 110 92 113 190 161 65 32 87 51 80 72 -4 11 3 20 20 28 14 6 25 17 25
25 0 7 12 24 28 39 15 14 32 31 37 37 32 34 89 74 108 76 12 1 27 3 34 4 6 0
26 13 43 27 27 23 41 27 113 29 89 3 130 -2 121 -16 -3 -5 7 -9 21 -9 15 0 24
-4 20 -10 -10 -15 46 -12 64 4 16 15 51 20 108 18 27 -2 30 -5 25 -24 -3 -14
-2 -19 7 -14 6 4 9 11 6 16 -3 5 -1 11 4 14 5 3 28 -14 51 -38 24 -25 57 -48
79 -55 48 -14 73 -14 49 0 -10 5 -18 14 -18 19 0 12 83 8 91 -3 4 -5 27 -9 53
-9 30 -1 46 -6 46 -14 0 -7 10 -16 22 -20 l23 -7 -25 -10 c-21 -8 -22 -11 -7
-14 27 -7 50 5 43 22 -6 18 5 20 22 3 9 -9 16 -8 30 5 10 10 35 17 56 17 34 0
37 -2 31 -22 -5 -20 -4 -21 5 -5 6 9 18 17 25 17 8 0 15 7 15 16 0 10 7 14 18
12 9 -2 16 -9 15 -15 -1 -7 12 -8 38 -3 39 7 56 0 44 -20 -3 -5 8 -2 25 8 27
15 32 15 40 2 7 -11 5 -18 -6 -27 -20 -15 -14 -47 10 -51 23 -5 39 18 25 35
-11 13 -4 33 11 33 5 0 12 -10 15 -21 5 -15 10 -18 15 -10 8 14 61 5 71 -12 4
-6 15 -6 25 -2 33 14 64 16 64 4 0 -6 7 -9 15 -5 10 4 15 -1 15 -14 0 -18 9
-24 27 -17 5 1 7 8 5 15 -3 14 24 16 33 2 4 -6 11 -8 16 -5 5 4 9 0 9 -7 0
-10 2 -10 9 1 11 17 32 5 24 -14 -6 -16 20 -17 45 -1 12 7 38 -8 67 -40 5 -6
19 -16 30 -22 11 -6 14 -12 8 -12 -18 0 -16 -27 3 -34 9 -3 28 -6 42 -6 22 0
24 -2 12 -11 -11 -8 -6 -9 22 -4 45 7 63 -9 72 -64 3 -23 11 -41 16 -41 6 0
10 -7 10 -15 0 -8 7 -15 15 -15 8 0 15 7 15 15 0 23 13 18 41 -14 15 -17 35
-30 45 -30 44 -1 55 -5 50 -18 -3 -7 1 -13 9 -13 8 0 15 5 15 12 0 6 2 9 5 7
8 -9 -7 -49 -17 -43 -6 4 -14 0 -19 -7 -7 -12 -11 -12 -18 -1 -6 11 -11 11
-24 -2 -21 -21 -27 -20 -27 4 0 20 -15 25 -45 13 -15 -5 -14 -8 6 -19 22 -12
22 -13 4 -15 -11 -1 -30 0 -41 0 -12 1 -24 -5 -27 -13 -5 -11 -21 -16 -54 -17
-33 0 -42 -3 -29 -8 14 -5 16 -10 7 -15 -6 -4 -18 -3 -25 3 -9 7 -16 7 -24 -1
-8 -8 -15 -8 -26 1 -10 8 -16 9 -21 1 -3 -5 -17 -7 -30 -4 -14 3 -38 2 -54 -4
-20 -7 -32 -7 -40 1 -9 9 -14 9 -20 -1 -5 -8 -21 -11 -49 -7 -33 4 -42 2 -42
-10 0 -19 -10 -19 -25 1 -10 14 -13 13 -28 -10 -18 -28 -54 -35 -75 -14 -9 9
-13 7 -18 -8 -13 -37 -46 -64 -69 -58 -24 6 -43 -10 -25 -21 7 -4 10 -33 9
-70 -2 -52 1 -66 19 -86 24 -25 30 -55 10 -42 -7 4 -5 -5 5 -20 10 -16 17 -46
17 -77 0 -28 5 -60 11 -71 13 -25 50 -259 43 -271 -3 -5 -5 -33 -5 -62 0 -40
-5 -56 -16 -60 -14 -6 -14 -8 1 -24 9 -10 16 -27 16 -38 0 -11 12 -35 28 -54
15 -19 36 -52 47 -72 11 -21 25 -38 32 -38 16 0 53 -58 53 -82 0 -9 10 -33 21
-53 24 -39 39 -168 22 -178 -19 -12 -53 23 -54 56 -1 18 -4 43 -8 57 -6 21 -8
22 -14 8 -3 -10 -16 -18 -27 -18 -11 0 -20 -4 -20 -8 0 -12 -80 -51 -121 -59
-18 -3 -45 -12 -59 -20 -14 -7 -32 -13 -41 -13 -9 0 -22 -7 -29 -15 -7 -8 -16
-12 -21 -9 -5 3 -23 -2 -41 -10 -17 -9 -42 -16 -55 -16 -19 0 -23 -4 -19 -18
4 -13 0 -18 -14 -19 -14 -1 -20 4 -20 17 0 13 -14 27 -40 40 -44 23 -62 24
-122 10 -24 -5 -71 -15 -105 -21 -35 -6 -63 -16 -63 -21 0 -5 19 -35 42 -66
24 -31 42 -60 40 -65 -1 -4 5 -7 13 -7 8 0 14 -3 13 -7 -3 -8 49 -63 58 -63
10 0 74 -75 74 -87 0 -12 -29 -18 -70 -15 -8 0 -55 -5 -105 -12 -121 -18 -333
-20 -364 -4 -31 16 -94 132 -86 158 7 22 247 261 275 274 12 6 20 19 21 35 0
16 3 20 7 11 3 -8 15 20 27 65 15 55 19 84 12 93 -12 15 -30 15 -45 0 -6 -6
-26 -13 -44 -15 -18 -1 -40 -11 -48 -22 -9 -10 -34 -24 -55 -32 -22 -7 -47
-19 -56 -26 -12 -10 -23 -11 -43 -3 -37 14 -38 13 -27 -9 8 -15 7 -21 -7 -27
-9 -4 -21 -6 -26 -5 -4 1 -14 -3 -21 -9 -9 -8 -15 -8 -20 0 -10 16 -23 12 -30
-11 -5 -16 -13 -20 -31 -16 -13 2 -29 -2 -35 -9 -6 -8 -18 -14 -26 -14 -7 0
-16 -7 -19 -15 -3 -8 -22 -17 -42 -21 -21 -4 -43 -11 -49 -16 -7 -6 -20 -7
-29 -4 -11 4 -22 -1 -31 -14 -10 -13 -25 -20 -49 -20 -33 0 -45 -12 -23 -25 7
-5 4 -14 -7 -26 -13 -14 -20 -16 -31 -8 -7 6 -14 9 -14 5 -1 -3 -2 -9 -3 -13
-5 -26 -30 -53 -46 -53 -25 0 -25 -15 0 -47 11 -15 18 -34 15 -44 -3 -9 -1
-20 5 -24 8 -5 8 -11 -1 -21 -6 -8 -10 -15 -8 -17 2 -1 16 -13 31 -26 25 -22
29 -23 50 -9 24 16 39 13 75 -12 36 -26 68 -140 44 -155 -11 -6 -8 -60 4 -88
4 -9 5 -27 2 -38 -4 -13 0 -22 11 -26 9 -2 27 -10 40 -16 32 -15 44 1 47 61 2
37 11 61 31 89 40 55 55 65 84 57 14 -4 37 -6 53 -5 15 1 51 -11 80 -25 44
-23 66 -28 147 -29 63 -1 124 -10 180 -25 47 -12 99 -24 116 -25 40 -3 77 -15
85 -26 3 -5 18 -10 34 -11 30 -3 75 -37 75 -57 0 -7 -5 -9 -11 -5 -7 4 -10 1
-7 -7 12 -32 -10 -48 -60 -44 -112 10 -147 16 -156 25 -15 15 -43 12 -49 -4
-6 -15 15 -39 29 -34 12 3 64 -32 64 -43 0 -5 -11 -7 -24 -3 -15 3 -39 -2 -65
-16 -23 -11 -52 -20 -64 -18 -19 3 -22 -1 -20 -32 1 -19 6 -36 12 -38 6 -2 11
-14 11 -27 0 -13 5 -27 10 -30 6 -4 9 -23 8 -43 -3 -31 0 -37 17 -38 11 -1 34
-8 50 -16 38 -19 277 -77 347 -83 77 -7 109 -15 102 -26 -3 -5 2 -9 10 -9 9 0
16 -5 16 -10 0 -6 3 -9 8 -8 4 1 19 -2 33 -6 l26 -7 -20 -40 c-12 -24 -25 -38
-32 -35 -14 5 -74 -55 -76 -76 -1 -7 -5 1 -9 17 l-8 30 -2 -30 c-1 -16 -2 -35
-1 -42 2 -12 -4 -14 -85 -31 -42 -9 -104 -5 -104 7 0 4 14 15 32 26 22 13 28
20 18 23 -8 3 -18 9 -21 14 -3 5 -29 5 -62 0 -30 -5 -62 -5 -70 0 -11 6 -16 1
-21 -16 -7 -30 -86 -72 -98 -53 -5 9 -12 6 -22 -9 -13 -18 -22 -20 -66 -16
-40 4 -50 2 -50 -11 0 -8 -9 -17 -20 -20 -11 -3 -20 -1 -20 4 0 5 7 9 15 9 17
0 20 16 6 24 -14 9 -40 -4 -43 -22 -3 -13 -16 -17 -64 -17 -46 0 -60 3 -57 12
6 16 1 16 -31 0 -14 -8 -23 -17 -19 -20 3 -4 2 -7 -4 -7 -6 0 -14 7 -17 16 -3
8 -10 12 -16 9 -6 -4 -24 5 -41 19 -17 14 -37 26 -45 26 -23 0 -63 30 -79 59
l-14 26 -1 -25 c0 -15 -5 -31 -11 -37 -15 -15 -59 7 -59 31 0 14 -6 17 -26 13
-18 -3 -27 0 -32 12 -3 9 -14 22 -24 29 -22 16 -24 60 -3 68 20 8 19 44 0 44
-9 0 -18 7 -22 16 -5 13 -8 13 -15 2 -8 -10 -11 -10 -15 0 -11 28 -35 43 -49
31 -11 -9 -14 -9 -14 1 0 9 -3 10 -14 1 -10 -9 -15 -8 -20 4 -6 17 -46 21 -46
5 0 -5 -5 -10 -11 -10 -5 0 -3 10 5 22 9 12 16 27 16 33 0 5 -5 2 -11 -9 -11
-17 -13 -17 -35 9 -13 16 -24 30 -24 31 0 2 15 11 33 20 18 10 27 19 19 22 -9
3 -10 8 -3 16 7 8 4 12 -10 12 -13 0 -17 -5 -14 -16 4 -11 -5 -20 -28 -28 -41
-15 -50 -15 -42 -2 4 6 10 8 15 5 4 -3 13 2 20 10 7 8 9 15 5 15 -4 0 -2 7 5
15 14 17 6 50 -10 40 -5 -3 -10 -17 -10 -31 0 -19 -5 -24 -25 -24 -31 0 -35
-34 -5 -50 11 -6 17 -16 14 -22 -4 -6 -3 -8 3 -5 12 7 26 -7 36 -36 6 -15 3
-17 -13 -12 -12 4 -20 2 -20 -5 0 -6 5 -8 10 -5 6 3 10 2 10 -3 0 -13 43 -57
64 -65 15 -6 16 -10 6 -22 -7 -9 -10 -19 -6 -22 4 -4 10 -2 14 4 11 17 62 4
62 -17 0 -27 35 -60 64 -60 14 0 26 -5 26 -11 0 -7 -12 -10 -30 -7 -30 5 -30
4 -26 -34 3 -21 1 -38 -5 -38 -5 0 -9 5 -9 12 0 6 -3 8 -7 5 -3 -4 1 -15 9
-24 8 -10 18 -26 21 -35 5 -14 2 -16 -16 -9 -12 4 -29 6 -37 3 -12 -4 -13 -2
-3 9 7 9 9 20 3 29 -11 18 -23 8 -26 -23 -1 -12 -3 -23 -3 -25 -1 -1 -10 2
-21 8 -14 7 -20 7 -20 0 0 -5 5 -10 11 -10 8 0 8 -5 -1 -15 -8 -9 -21 -13 -36
-9 -20 5 -24 2 -24 -15 0 -13 9 -25 23 -30 l22 -9 -23 -9 -23 -9 22 -19 c22
-20 22 -20 15 3 -5 13 -3 22 3 22 6 0 14 0 19 0 4 0 7 -12 8 -27 1 -15 6 -29
13 -31 6 -2 11 -11 11 -20 0 -15 2 -15 10 -2 12 19 43 2 49 -25 1 -10 12 -27
22 -38 21 -23 23 -35 9 -57 -9 -15 18 -50 40 -50 5 0 10 -8 10 -18 0 -16 57
-42 91 -42 13 0 39 -25 39 -38 0 -6 18 -13 40 -17 33 -6 40 -11 40 -30 0 -13
-6 -25 -12 -28 -9 -3 -8 -10 6 -26 11 -12 26 -19 33 -16 8 2 12 1 9 -4 -3 -4
3 -16 14 -26 10 -9 16 -24 13 -32 -5 -12 -1 -14 17 -8 14 4 20 3 16 -3 -7 -11
15 -22 45 -22 10 0 19 -6 19 -13 0 -8 10 -19 23 -25 12 -6 16 -11 10 -11 -14
-1 -18 -43 -6 -55 12 -12 9 -41 -5 -46 -9 -4 0 -15 24 -33 28 -19 40 -23 46
-14 5 8 8 4 8 -10 0 -17 6 -23 23 -23 12 0 28 -9 35 -21 13 -20 12 -21 -20
-15 -18 3 -27 3 -20 0 6 -3 12 -15 12 -26 0 -15 -5 -19 -20 -15 -23 6 -27 -11
-5 -19 8 -4 12 -10 9 -16 -3 -5 -11 -4 -19 2 -15 12 -35 6 -35 -11 0 -6 8 -8
18 -5 10 4 27 -1 38 -9 18 -14 18 -14 -5 -15 -19 0 -21 -3 -12 -14 18 -21 2
-46 -29 -46 -16 0 -32 -5 -35 -10 -4 -7 -13 -7 -26 0 -20 11 -39 6 -39 -10 0
-5 8 -11 18 -13 11 -3 7 -7 -15 -12 -38 -9 -36 -20 7 -28 27 -6 36 -20 31 -50
-1 -5 7 -7 16 -6 26 4 60 -9 66 -26 5 -11 1 -11 -28 1 -22 9 -36 10 -40 4 -10
-16 -91 -12 -105 5 -12 15 -35 11 -25 -5 3 -5 0 -12 -6 -15 -5 -4 -13 1 -15
12 -3 11 -15 20 -31 21 -22 2 -24 0 -13 -14 11 -13 10 -16 -8 -21 -12 -3 -22
-9 -22 -14 0 -5 344 -9 800 -9 719 0 800 2 800 16 0 17 -72 91 -160 166 -30
26 -65 55 -78 66 -14 12 -20 26 -16 36 5 12 0 16 -24 16 -23 0 -35 8 -56 40
-32 48 -32 60 -2 130 13 30 47 111 76 180 65 156 134 309 212 467 59 121 61
124 151 199 247 205 403 399 510 633 38 83 83 223 98 304 6 34 21 78 32 97 12
22 19 51 18 79 -1 31 4 47 16 57 15 10 18 28 19 91 0 50 6 89 16 108 9 17 33
80 53 140 21 61 44 119 52 131 7 11 10 24 6 27 -3 4 4 7 16 7 12 0 24 7 27 15
4 10 12 12 22 7 19 -9 53 -8 92 3 14 3 52 10 85 15 33 4 85 17 115 28 34 12
96 22 160 25 206 12 276 18 310 27 19 5 89 12 155 15 115 5 151 8 293 21 l62
6 0 332 0 333 -39 11 c-39 12 -62 36 -76 82 -4 14 -16 30 -25 37 -10 7 -20 25
-23 41 -8 37 -23 43 -72 26 -44 -15 -75 -46 -75 -75 0 -10 -12 -39 -27 -64
-61 -101 -172 -109 -261 -18 -17 17 -21 27 -13 36 5 7 11 35 13 62 l3 50 45 0
c41 0 45 2 54 34 7 23 6 39 -2 52 -16 25 -15 76 1 86 27 17 77 89 77 111 0 13
8 25 18 29 9 3 31 17 49 30 60 44 136 28 183 -39 38 -55 107 -108 141 -108
l29 0 0 224 0 223 -52 12 c-29 7 -73 16 -98 21 -65 14 -94 28 -109 52 -12 19
-10 25 25 58 22 20 46 49 55 66 11 20 41 41 97 69 l81 40 1 213 c0 202 -1 215
-21 240 l-21 27 21 14 c18 12 21 24 21 90 l0 76 -43 27 c-23 14 -55 30 -72 34
-57 13 -103 45 -121 86 -15 35 -16 47 -6 96 6 30 11 57 9 58 -1 2 -22 -2 -46
-7 -37 -8 -50 -6 -87 11 -55 27 -101 79 -110 125 -3 19 -12 35 -19 35 -32 0
-24 55 16 112 26 36 20 43 -23 28 -24 -9 -53 -10 -94 -4 -32 4 -63 8 -69 9
-19 0 -16 -37 4 -59 20 -21 41 -74 41 -103 0 -6 -8 -14 -18 -17 -10 -3 -23
-19 -29 -35 -13 -37 -59 -60 -135 -71 -68 -10 -68 -10 -73 -42 -2 -12 -5 -32
-7 -42 -2 -11 -12 -29 -24 -41 -12 -11 -23 -26 -25 -32 -7 -20 -60 -2 -69 22
-5 13 -18 26 -28 30 -22 6 -36 46 -27 74 7 23 -28 63 -48 55 -21 -8 -58 31
-50 52 4 12 3 15 -5 10 -7 -4 -12 -3 -12 3 0 14 -40 51 -67 62 -31 12 -30 53
2 104 26 42 32 71 15 77 -5 2 -38 1 -72 -2 -60 -5 -63 -6 -66 -32 -3 -24 -6
-27 -22 -18 -16 8 -18 8 -14 -5 5 -12 0 -14 -27 -9 -19 4 -36 8 -38 10 -2 2
-10 -1 -16 -6 -9 -7 -16 -6 -25 5 -7 8 -21 15 -31 15 -35 0 -122 64 -118 86 1
5 1 18 0 29 -1 18 -2 19 -12 3 -14 -24 -27 -23 -31 4 -3 20 -9 21 -94 22 l-91
1 -44 40 c-24 21 -60 58 -79 82 -19 24 -42 43 -51 43 -9 0 -29 10 -44 22 -16
12 -36 23 -47 23 -10 1 -28 11 -41 21 -49 44 -114 79 -147 80 -53 3 -106 19
-136 43 -15 11 -32 21 -39 21 -21 0 -76 32 -82 47 -3 8 5 26 18 40 48 51 280
217 442 315 l62 38 -697 0 -697 0 10 -32 c5 -18 9 -56 9 -84 0 -43 -5 -56 -35
-92 -20 -22 -44 -44 -55 -47 -41 -13 -102 15 -168 78 -64 62 -64 62 -117 59
-39 -3 -69 3 -119 23 -36 14 -77 25 -90 23 -13 -1 -31 3 -39 11 -21 17 -50 7
-45 -16 3 -12 12 -17 27 -15 13 1 53 -14 88 -34 61 -34 67 -41 98 -108 52
-112 52 -119 1 -144 -24 -12 -56 -22 -72 -22 -16 0 -36 -5 -44 -10 -11 -7 -5
-10 25 -10 52 0 87 -10 82 -23 -7 -23 -294 -77 -320 -60 -5 3 -35 -2 -66 -12
-158 -50 -240 -78 -281 -97 -52 -25 -129 -79 -130 -91 0 -5 -11 -23 -24 -40
-13 -18 -31 -48 -39 -67 -8 -19 -26 -48 -41 -63 -24 -25 -27 -27 -48 -13 -13
8 -49 21 -80 30 -73 21 -115 61 -123 120 -4 25 -4 49 -1 55 14 21 -15 20 -68
-5 -55 -25 -57 -25 -104 -10 -27 9 -61 30 -77 46 -31 32 -35 70 -20 186 l7 60
-68 79 c-66 75 -139 125 -185 125 -23 0 -67 37 -84 70 -22 42 -18 78 10 105
l24 25 -609 0 -610 0 0 -3600z m2360 2971 c0 -13 -96 -61 -122 -61 -22 1 -22
1 5 25 16 14 33 23 38 20 5 -4 19 1 31 9 25 18 48 21 48 7z m-1568 -577 c-5
-9 -7 -26 -4 -36 4 -16 0 -19 -19 -16 -16 2 -25 11 -27 27 -2 15 0 21 7 16 6
-3 14 1 17 9 3 9 13 16 21 16 10 0 11 -5 5 -16z m434 -20 c16 -4 41 -13 57
-21 23 -12 27 -19 27 -58 0 -36 -3 -45 -17 -45 -15 0 -16 -2 -3 -10 10 -6 11
-10 3 -10 -7 0 -12 -10 -10 -22 1 -16 -9 -29 -35 -47 -41 -26 -47 -41 -24 -60
8 -7 13 -23 10 -37 -3 -18 4 -32 26 -52 72 -65 98 -91 93 -95 -2 -3 6 -13 19
-23 13 -11 29 -31 35 -46 7 -16 19 -28 28 -28 8 0 15 -9 15 -20 0 -13 7 -20
19 -20 21 0 34 -33 19 -48 -11 -11 6 -52 22 -52 5 0 5 -13 0 -30 -8 -29 -6
-32 26 -47 37 -18 43 -30 19 -39 -19 -8 -19 -38 1 -68 10 -16 12 -26 5 -31 -7
-3 -8 -20 -5 -38 4 -18 6 -44 5 -59 -1 -18 4 -28 13 -28 22 0 13 -47 -14 -75
-21 -23 -20 -30 4 -26 5 1 5 -8 1 -21 -4 -13 -8 -41 -10 -63 -3 -42 -14 -68
-52 -122 -13 -17 -23 -34 -23 -38 0 -4 -15 -22 -34 -40 -45 -43 -106 -51 -157
-21 -88 52 -129 83 -146 114 -22 40 -41 41 -54 2 -6 -16 -12 -30 -12 -31 -1 0
-28 -3 -59 -5 -40 -4 -58 -1 -58 7 0 6 -11 20 -25 31 -15 12 -25 30 -25 46 0
31 -20 92 -36 109 -9 9 -7 22 6 50 14 30 16 50 11 98 -7 55 -6 62 15 82 13 12
26 34 30 50 4 15 9 32 11 36 10 16 11 97 2 97 -5 0 -9 6 -9 14 0 20 -74 130
-103 153 -13 10 -31 30 -41 44 -10 17 -30 29 -50 33 -45 9 -60 29 -62 85 -1
26 -7 64 -13 86 -13 47 6 85 42 85 21 1 21 2 -6 26 -22 18 -27 31 -23 48 6 25
34 59 56 69 8 4 22 12 32 19 13 9 20 9 32 -1 23 -19 20 -44 -14 -100 l-29 -50
28 5 c18 4 44 -2 71 -15 l44 -21 23 22 c25 23 30 67 11 86 -10 10 -8 16 5 29
16 16 17 16 17 0 0 -14 9 -17 48 -17 26 0 53 -4 61 -9 10 -6 25 -4 44 6 16 8
48 16 71 18 51 4 63 34 21 53 -35 16 -60 75 -44 104 10 19 13 20 23 5 7 -8 25
-19 42 -23z m3884 -1714 c3 -1 17 -1 32 0 29 1 51 -26 55 -67 2 -28 -11 -29
-44 -3 -19 15 -21 20 -9 20 9 0 16 8 16 20 0 21 -8 24 -33 14 -9 -3 -13 -14
-10 -27 3 -13 1 -17 -4 -11 -7 11 -40 19 -53 14 -3 -1 -17 -3 -31 -4 -21 -1
-26 2 -24 16 2 11 -2 18 -11 18 -8 0 -14 5 -14 10 0 9 108 8 130 0z m124 -126
c3 -8 2 -12 -4 -9 -6 3 -10 10 -10 16 0 14 7 11 14 -7z m892 -259 c19 -25 18
-47 -3 -84 -24 -41 -58 -56 -86 -36 -12 8 -16 15 -10 15 6 0 9 8 6 19 -3 10 3
34 13 52 10 19 19 37 20 42 1 4 2 8 3 10 4 11 46 -2 57 -18z m-657 -265 c-1
-27 -7 -50 -13 -50 -6 0 -5 -5 2 -12 7 -7 12 -21 12 -32 0 -20 0 -20 -15 0
-16 21 -20 80 -6 88 4 3 6 17 3 31 -2 15 0 25 7 25 7 0 11 -18 10 -50z m-96
-223 c40 -19 47 -26 45 -47 -1 -14 1 -31 5 -38 5 -6 6 -16 3 -21 -3 -5 1 -12
10 -15 8 -3 13 -10 9 -16 -3 -5 -6 -40 -7 -76 -2 -67 -16 -117 -30 -108 -5 3
-8 -4 -8 -15 0 -12 -4 -21 -10 -21 -5 0 -10 -11 -10 -24 0 -13 -7 -27 -16 -30
-8 -3 -13 -10 -10 -15 3 -5 -1 -11 -9 -15 -8 -3 -15 -10 -15 -17 0 -6 -9 -24
-21 -40 -11 -16 -18 -36 -15 -44 3 -8 0 -15 -7 -15 -7 0 -18 -9 -25 -20 -14
-22 -73 -50 -107 -50 -12 0 -30 -9 -40 -20 -10 -11 -29 -20 -42 -20 -13 0 -33
-4 -43 -10 -10 -5 -33 -10 -51 -12 -19 -1 -38 -4 -44 -8 -16 -10 -54 -10 -60
1 -4 5 -19 9 -36 9 -16 0 -37 4 -47 9 -9 5 -29 14 -44 22 -16 7 -28 18 -28 26
0 7 -5 13 -12 13 -13 0 -118 105 -118 118 0 6 -10 12 -23 16 -34 8 -98 81 -90
101 4 13 1 16 -18 14 -36 -5 -55 10 -33 26 16 12 16 13 -4 24 -19 10 -22 9
-22 -9 0 -24 -4 -25 -29 -3 -24 20 -18 33 14 33 20 0 24 5 22 22 -1 13 -11 31
-22 40 -19 17 -19 19 -2 29 9 5 14 16 11 22 -4 7 -4 9 0 6 15 -14 61 7 61 27
0 10 5 18 12 17 7 -2 10 3 7 11 -3 7 3 22 13 31 13 13 14 20 5 23 -6 2 -12 8
-12 14 0 7 14 8 38 4 20 -4 46 -9 57 -11 11 -2 47 -9 80 -15 68 -14 353 -5
370 11 5 5 40 9 77 9 37 0 68 3 68 8 0 4 -10 16 -22 27 l-23 19 74 12 c40 7
75 15 77 17 8 8 45 -3 97 -26z m-3450 3 c9 -11 13 -20 8 -20 -16 0 -20 -40 -5
-54 19 -20 18 -31 -5 -33 -22 -2 -41 35 -41 81 0 50 15 59 43 26z m1979 -1305
c-2 -14 1 -32 8 -40 10 -12 9 -15 -4 -15 -9 0 -18 0 -21 0 -3 0 -10 11 -16 25
-8 19 -8 29 1 40 20 24 38 18 32 -10z m64 -13 c-9 -9 -37 8 -31 18 5 8 11 7
21 -1 8 -6 12 -14 10 -17z m-1262 -531 c3 -4 3 -11 0 -14 -8 -7 -44 4 -44 14
0 12 37 12 44 0z m82 -75 c15 -16 18 -26 6 -26 -4 0 -13 9 -20 20 -14 23 -7
26 14 6z m1004 -116 c0 -5 -2 -10 -4 -10 -3 0 -8 5 -11 10 -3 6 -1 10 4 10 6
0 11 -4 11 -10z m-1032 -98 c2 -6 -6 -16 -17 -22 -19 -9 -21 -8 -21 14 0 17 5
24 17 22 9 -2 19 -8 21 -14z m-88 -12 c0 -5 -4 -10 -9 -10 -6 0 -13 5 -16 10
-3 6 1 10 9 10 9 0 16 -4 16 -10z m587 -686 c-3 -3 -12 -4 -19 -1 -8 3 -5 6 6
6 11 1 17 -2 13 -5z m-2852 -174 c3 -5 -1 -10 -9 -10 -9 0 -16 5 -16 10 0 6 4
10 9 10 6 0 13 -4 16 -10z"/>
<path d="M1162 5001 c2 -9 15 -17 31 -19 28 -3 36 9 15 25 -20 16 -49 12 -46
-6z"/>
<path d="M2113 7184 c-11 -30 10 -69 40 -72 21 -3 29 2 37 23 20 52 14 65 -30
65 -28 0 -43 -5 -47 -16z"/>
<path d="M2676 7185 c4 -8 10 -15 15 -15 5 0 9 7 9 15 0 8 -7 15 -15 15 -9 0
-12 -6 -9 -15z"/>
<path d="M6633 7156 c-18 -24 -33 -48 -33 -54 0 -24 27 -11 43 21 9 17 24 42
33 55 13 17 14 22 3 22 -8 0 -29 -20 -46 -44z"/>
<path d="M1763 7060 c-18 -10 -39 -30 -48 -44 -15 -23 -15 -27 7 -73 18 -38
28 -48 48 -48 20 0 26 7 37 44 7 25 17 49 23 55 16 16 12 51 -8 69 -23 21 -20
21 -59 -3z"/>
<path d="M2553 7038 c-10 -13 -25 -24 -33 -26 -8 -2 -21 -10 -29 -17 -12 -12
-11 -15 10 -24 14 -5 30 -16 37 -24 8 -10 30 -14 63 -14 55 1 61 9 63 86 1 36
1 36 -45 39 -39 2 -50 -1 -66 -20z"/>
<path d="M6223 7003 c-10 -3 -11 -31 -6 -111 6 -109 13 -132 42 -132 9 0 29
-7 45 -15 28 -15 31 -15 63 17 50 48 44 77 -33 160 -24 26 -44 51 -44 56 0 7
-46 34 -53 31 -1 0 -8 -3 -14 -6z"/>
<path d="M2665 6775 l-30 -13 40 -4 c42 -3 125 12 125 23 0 12 -104 7 -135 -6z"/>
<path d="M3510 4695 c7 -8 22 -14 34 -14 20 2 20 2 -1 6 -13 2 -23 9 -23 14 0
5 -5 9 -11 9 -8 0 -8 -5 1 -15z"/>
<path d="M4180 4620 c0 -5 5 -10 11 -10 5 0 7 5 4 10 -3 6 -8 10 -11 10 -2 0
-4 -4 -4 -10z"/>
<path d="M3120 4363 c0 -9 -3 -14 -6 -11 -3 4 -26 -1 -51 -9 -38 -13 -47 -13
-54 -2 -7 11 -11 10 -23 -6 -13 -18 -26 -20 -113 -19 -54 0 -90 -2 -80 -4 9
-2 17 -7 17 -12 0 -5 -7 -7 -15 -4 -8 4 -15 2 -15 -4 0 -5 19 -12 41 -15 23
-3 49 -13 58 -23 15 -15 14 -16 -9 -10 -75 20 -79 19 -73 -3 3 -14 13 -21 29
-21 15 0 24 -6 24 -15 0 -8 7 -15 15 -15 8 0 15 -5 15 -11 0 -5 4 -8 8 -5 5 3
9 -1 9 -9 0 -19 -4 -19 -34 5 -14 11 -30 17 -35 13 -6 -3 2 -11 18 -18 16 -7
40 -22 53 -34 13 -11 28 -18 33 -15 5 3 14 1 21 -4 7 -5 23 -12 35 -15 23 -5
23 -5 7 13 -10 11 -12 20 -7 24 6 3 13 0 15 -6 4 -10 6 -10 6 0 2 24 60 13 93
-18 17 -16 36 -30 41 -30 6 0 2 7 -9 16 -18 14 -18 15 4 4 27 -13 29 -30 2
-30 -23 0 -25 -8 -6 -32 9 -12 26 -17 60 -16 52 1 66 -6 46 -25 -10 -9 -11 -9
-6 1 12 20 -13 13 -26 -8 -8 -13 -24 -20 -44 -20 -17 0 -34 -3 -37 -7 -4 -3
-19 -7 -34 -9 -113 -9 -291 -67 -351 -115 -14 -10 -30 -19 -37 -19 -6 0 -22
-11 -34 -24 l-23 -24 23 -13 c13 -6 53 -16 89 -21 108 -14 123 -17 175 -32 28
-8 78 -22 113 -32 84 -25 83 -43 -3 -56 -13 -3 -3 -10 33 -23 28 -10 52 -22
52 -26 0 -9 -129 -5 -190 6 -57 10 -47 -2 16 -20 27 -8 90 -26 139 -40 153
-44 395 -38 503 13 77 37 98 52 106 78 22 71 29 85 39 75 14 -14 55 43 63 88
3 20 12 46 20 58 8 12 11 29 8 38 -4 9 -2 15 3 13 19 -6 83 76 83 105 0 23 3
27 19 22 24 -7 33 25 19 66 -11 33 -35 49 -71 49 -14 0 -28 7 -31 16 -5 13 -9
14 -20 4 -12 -9 -21 -7 -42 7 -15 10 -32 18 -38 18 -6 1 -24 7 -41 15 -16 7
-36 14 -43 16 -18 3 -28 14 -14 14 7 0 12 5 12 10 0 6 -4 10 -9 10 -5 0 -22 5
-38 12 -15 6 -36 10 -47 9 -10 -2 -37 4 -60 12 -22 8 -58 18 -78 22 -21 3 -38
10 -38 15 0 6 -9 10 -21 10 -11 0 -17 5 -14 10 6 9 -55 16 -93 11 -17 -3 -114
29 -126 40 -15 14 -26 11 -26 -8z m-150 -208 c7 -9 8 -15 2 -15 -5 0 -12 7
-16 15 -3 8 -4 15 -2 15 2 0 9 -7 16 -15z m180 -525 c0 -5 -7 -10 -16 -10 -8
0 -12 5 -9 10 3 6 10 10 16 10 5 0 9 -4 9 -10z"/>
<path d="M4820 4306 c0 -8 5 -18 10 -21 6 -3 10 3 10 14 0 12 -4 21 -10 21 -5
0 -10 -6 -10 -14z"/>
<path d="M2780 4156 c0 -2 7 -7 16 -10 8 -3 12 -2 9 4 -6 10 -25 14 -25 6z"/>
<path d="M1687 3563 c-10 -9 -8 -53 2 -53 16 0 31 27 25 44 -6 17 -16 20 -27
9z"/>
<path d="M4331 3023 c1 -27 15 -58 21 -47 8 13 -2 64 -13 64 -5 0 -9 -8 -8
-17z"/>
<path d="M4170 2869 c0 -5 5 -7 10 -4 6 3 10 8 10 11 0 2 -4 4 -10 4 -5 0 -10
-5 -10 -11z"/>
<path d="M3811 2044 c0 -11 3 -14 6 -6 3 7 2 16 -1 19 -3 4 -6 -2 -5 -13z"/>
<path d="M2677 1713 c-11 -11 -8 -53 4 -53 14 0 39 26 39 41 0 7 -3 9 -7 6 -3
-4 -11 -2 -18 3 -7 5 -15 7 -18 3z"/>
<path d="M2711 1657 c-6 -8 -8 -17 -4 -20 7 -8 33 11 33 24 0 13 -16 11 -29
-4z"/>
<path d="M2872 1523 c-6 -3 -10 -9 -6 -14 7 -12 41 -12 48 0 7 10 -23 20 -42
14z"/>
<path d="M2840 1481 c0 -12 6 -21 16 -21 9 0 14 7 12 17 -5 25 -28 28 -28 4z"/>
<path d="M2670 1480 c0 -5 5 -10 10 -10 6 0 10 5 10 10 0 6 -4 10 -10 10 -5 0
-10 -4 -10 -10z"/>
<path d="M2895 1481 c-3 -5 -1 -12 5 -16 5 -3 10 1 10 9 0 18 -6 21 -15 7z"/>
<path d="M2680 1421 c0 -5 5 -13 10 -16 6 -3 10 -2 10 4 0 5 -4 13 -10 16 -5
3 -10 2 -10 -4z"/>
<path d="M2940 1401 c0 -20 17 -37 27 -28 7 8 -7 47 -18 47 -5 0 -9 -9 -9 -19z"/>
<path d="M2545 1360 c3 -5 8 -10 11 -10 2 0 4 5 4 10 0 6 -5 10 -11 10 -5 0
-7 -4 -4 -10z"/>
<path d="M3185 1320 c-3 -5 -1 -10 4 -10 6 0 11 5 11 10 0 6 -2 10 -4 10 -3 0
-8 -4 -11 -10z"/>
<path d="M1680 1301 c0 -11 3 -21 8 -23 4 -1 29 -29 57 -60 27 -32 54 -58 60
-58 6 0 19 18 29 40 20 46 10 72 -24 63 -11 -3 -40 8 -70 26 -59 37 -60 37
-60 12z"/>
<path d="M2690 1065 c0 -8 9 -19 20 -25 15 -8 20 -8 20 3 0 14 -19 37 -32 37
-4 0 -8 -7 -8 -15z"/>
<path d="M2320 226 c0 -8 5 -18 10 -21 6 -3 10 1 10 9 0 8 -4 18 -10 21 -5 3
-10 -1 -10 -9z"/>
<path d="M6753 213 c-7 -2 -13 -9 -13 -14 0 -6 4 -8 9 -4 14 8 10 -58 -3 -68
-8 -6 -7 -10 2 -14 6 -2 12 -9 12 -14 0 -6 -6 -7 -12 -3 -7 4 -5 -1 4 -11 14
-15 22 -16 40 -8 20 9 23 16 20 57 -2 25 -7 44 -11 42 -3 -2 -12 2 -19 10 -11
12 -10 14 3 14 9 0 13 5 10 10 -7 11 -22 12 -42 3z"/>
<path d="M2194 165 c-8 -19 -6 -20 24 -29 28 -9 30 14 2 32 -17 10 -21 10 -26
-3z"/>
<path d="M2448 133 c7 -3 16 -2 19 1 4 3 -2 6 -13 5 -11 0 -14 -3 -6 -6z"/>
<path d="M2060 91 c0 -11 39 -26 47 -17 8 8 3 12 -24 20 -13 4 -23 3 -23 -3z"/>
<path d="M2380 72 c0 -5 7 -13 16 -16 10 -4 14 -1 12 6 -5 15 -28 23 -28 10z"/>
<path d="M2565 60 c3 -5 8 -10 11 -10 2 0 4 5 4 10 0 6 -5 10 -11 10 -5 0 -7
-4 -4 -10z"/>
<path d="M2950 35 c0 -10 7 -15 18 -13 21 4 19 22 -2 26 -10 2 -16 -3 -16 -13z"/>
<path d="M2250 10 c0 -5 5 -10 10 -10 6 0 10 5 10 10 0 6 -4 10 -10 10 -5 0
-10 -4 -10 -10z"/>
</g>
</svg>
